<?xml version="1.0" encoding="utf-8"?>
<!-- Generator: Adobe Illustrator 25.4.1, SVG Export Plug-In . SVG Version: 6.00 Build 0)  -->
<svg version="1.1" id="Layer_1" xmlns="http://www.w3.org/2000/svg" xmlns:xlink="http://www.w3.org/1999/xlink" x="0px" y="0px"
	 viewBox="0 0 323.84 58.83" style="enable-background:new 0 0 323.84 58.83;" xml:space="preserve">
<style type="text/css">
	.st0{fill:#FFFFFF;}
</style>
<g>
	<g>
		<path class="st0" d="M99.01,47.03c-3.41,0-4.42-0.8-4.42-3V15.86c0-1.8,1.01-2.7,2.51-2.7h15.16c7.02,0,11.54,4.1,11.54,10.29
			c0,9-5.82,12.09-15.36,12.09c-6.22,0-6.42,1.3-6.42,5.6v3.3C102.02,45.44,101.32,47.03,99.01,47.03 M101.92,23.95v2
			c0,3.4,1.5,4.6,5.72,4.6c5.82,0,8.73-2.1,8.73-6.29c0-3.7-2.51-6.09-7.53-6.09h-2.31C103.12,18.16,101.92,19.56,101.92,23.95"/>
		<path class="st0" d="M144.58,46.78c-2.11,0-3.12-0.9-4.42-0.9c-2.31,0-3.91,1.6-7.33,1.6c-5.62,0-8.63-3.19-8.63-7.59
			c0-4.5,3.61-7.9,11.75-9c3.3-0.39,4.31-1.7,4.31-2.8c0-1.99-1.61-3.29-3.51-3.29c-3.81,0-3.51,3.29-7.73,3.29
			c-1.41,0-2.91-0.3-2.91-1.99c0-1.8,2.11-5.6,10.14-5.6c7.02,0,11.24,1.6,11.24,8.8v14.99C147.49,46.28,146.28,46.78,144.58,46.78
			 M135.14,42.39c2.61,0,5.22-2.4,5.22-5c0-1.3-0.7-2.4-2.51-2.4c-2.1,0-6.32,1.4-6.32,4.2C131.52,40.89,132.93,42.39,135.14,42.39"
			/>
		<path class="st0" d="M154.71,17.46c-2.91,0-3.91-1.3-3.91-3c0-2.5,1.8-3.2,3.91-3.2c2.91,0,4.02,1.3,4.02,3
			C158.73,16.76,156.92,17.46,154.71,17.46 M158.83,24.75v18.69c0,2.4-1.31,3.6-4.02,3.6c-3.41,0-4.01-1.5-4.01-4.4V23.95
			c0-2.2,1.2-3.6,3.01-3.6h1.81C157.72,20.35,158.83,21.85,158.83,24.75"/>
		<path class="st0" d="M185.12,28.6v15.59c0,1.9-1.4,2.8-3.11,2.8h-1.1c-1.61,0-2.81-0.9-2.81-2.8V33.39c0-4.59-1.51-6.89-4.31-6.89
			c-3.02,0-4.42,2.4-4.42,7.19v10.49c0,1.9-1.4,2.8-3.11,2.8h-1.1c-1.7,0-2.8-1-2.8-3.1V24.1c0-1.9,1.1-2.9,3.51-2.9
			c2.01,0,3.62,0.7,4.91,0.7c2.42,0,3.12-1.3,6.73-1.3C182.11,20.6,185.12,22.8,185.12,28.6"/>
		<path class="st0" d="M186.53,23c0-1.7,2.6-2.7,3.01-3.7c0.5-1.1,0.5-1.6,0.5-2.7c0-1.11,0.3-3.6,3.92-3.6
			c3.51,0,3.82,2.29,3.82,3.69c0,1,0.2,2,0.7,2.8c0.81,1.2,3.72,1.2,3.72,3.59c0,2.4-3.11,2.1-4.01,4.1c-0.5,1.1-0.4,1.7-0.4,3.4
			v5.8c0,1.7,0.2,2.2,0.6,3c0.8,1.7,4.11,1.7,4.11,4.69c0,2.1-1.3,3.2-4.02,3.2c-5.51,0-8.32-2.49-8.32-7.39V30.9
			c0.1-2-0.2-3.5-1.01-4.5C188.33,25.4,186.53,24.7,186.53,23"/>
		<path class="st0" d="M210.18,47.02c-3.42,0-4.42-0.8-4.42-3V15.84c0-1.8,1.01-2.7,2.51-2.7h15.16c7.02,0,11.55,4.1,11.55,10.29
			c0,8.99-5.83,12.09-15.36,12.09c-6.22,0-6.42,1.3-6.42,5.6v3.3C213.18,45.42,212.48,47.02,210.18,47.02 M213.08,23.94v2
			c0,3.4,1.51,4.6,5.72,4.6c5.82,0,8.73-2.1,8.73-6.3c0-3.7-2.51-6.09-7.53-6.09h-2.31C214.28,18.14,213.08,19.54,213.08,23.94"/>
		<path class="st0" d="M255.74,46.77c-2.11,0-3.11-0.9-4.41-0.9c-2.31,0-3.92,1.6-7.33,1.6c-5.62,0-8.63-3.19-8.63-7.59
			c0-4.5,3.61-7.9,11.74-9c3.31-0.4,4.32-1.7,4.32-2.79c0-2-1.61-3.3-3.51-3.3c-3.81,0-3.51,3.3-7.72,3.3c-1.4,0-2.91-0.3-2.91-2
			c0-1.8,2.11-5.59,10.14-5.59c7.03,0,11.24,1.6,11.24,8.79v14.99C258.65,46.27,257.45,46.77,255.74,46.77 M246.3,42.37
			c2.61,0,5.22-2.4,5.22-5c0-1.3-0.7-2.4-2.51-2.4c-2.11,0-6.32,1.4-6.32,4.19C242.69,40.87,244.1,42.37,246.3,42.37"/>
		<path class="st0" d="M274.66,20.09c5.02,0,10.34,2.9,10.34,5.5c0,1.29-1.61,2.8-3.82,2.8c-2.1,0-3.31-2.3-6.02-2.3
			c-2.41,0-5.82,1.8-5.82,7.69c0,5.2,2.71,7.9,6.12,7.9c4.01,0,3.72-2.49,6.63-2.49c1.51,0,3.01,1,3.01,2.49c0,2-4.21,5.9-10.43,5.9
			c-7.73,0-13.35-4.6-13.35-13.69C261.31,25.88,266.53,20.09,274.66,20.09"/>
		<path class="st0" d="M310.44,43.02c0.6,1,0.9,1.8,0.9,2.3c0,1.09-1,1.6-3.01,1.6c-2.21,0-3.91-0.8-4.92-2.4l-2.61-4.3
			c-1-1.6-2.01-2.4-3.02-2.4c-1.5,0-3.11,1.3-3.11,5c0,2.7-0.5,4.1-3.31,4.1c-2.71,0-3.51-1.1-3.51-3.4V15.64
			c0-2.1,0.9-3.19,3.41-3.19c2.31,0,3.41,1,3.41,3.19c0,10.7-0.11,12.09,1.8,12.09c0.6,0,1.3-0.2,3.11-2c0,0,0.5-0.6,1.61-1.8
			c1.1-1.1,1.8-1.7,2.11-1.8c0.81-0.5,2.01-0.7,3.62-0.7h0.7c1.5,0,2.21,0.5,2.21,1.4c0,0.5-0.3,1.1-1,1.9l-3.52,4
			c-0.9,1.1-1.1,2.2-1.1,2.6c0,0.9,0.21,1.6,0.5,2.1L310.44,43.02z"/>
		<rect y="22.47" class="st0" width="36.13" height="36.36"/>
		<rect x="36.13" class="st0" width="22.33" height="22.47"/>
		<rect x="58.46" y="22.47" class="st0" width="13.8" height="13.89"/>
		<rect x="49.93" y="36.36" class="st0" width="8.53" height="8.58"/>
		<rect x="44.66" y="31.05" class="st0" width="5.27" height="5.31"/>
	</g>
	<g>
		<path class="st0" d="M315.34,43.38c0-0.58,0.11-1.13,0.34-1.65c0.22-0.52,0.53-0.96,0.91-1.34c0.39-0.38,0.84-0.68,1.35-0.9
			c0.52-0.22,1.07-0.34,1.65-0.34c0.58,0,1.13,0.11,1.65,0.34c0.52,0.22,0.97,0.52,1.35,0.9c0.39,0.38,0.69,0.83,0.91,1.34
			c0.22,0.52,0.34,1.07,0.34,1.65c0,0.58-0.11,1.13-0.34,1.64c-0.22,0.51-0.53,0.95-0.91,1.33c-0.39,0.38-0.84,0.68-1.35,0.89
			c-0.52,0.22-1.07,0.33-1.65,0.33c-0.58,0-1.13-0.11-1.65-0.33c-0.52-0.22-0.97-0.52-1.35-0.89c-0.39-0.38-0.69-0.82-0.91-1.33
			C315.45,44.51,315.34,43.96,315.34,43.38z M316.01,43.38c0,0.48,0.09,0.94,0.28,1.38c0.19,0.43,0.44,0.82,0.76,1.15
			c0.32,0.33,0.7,0.59,1.14,0.77c0.43,0.19,0.9,0.28,1.4,0.28c0.5,0,0.96-0.09,1.4-0.28c0.43-0.19,0.81-0.44,1.14-0.77
			c0.32-0.33,0.58-0.71,0.76-1.15c0.19-0.43,0.28-0.89,0.28-1.38c0-0.5-0.09-0.96-0.28-1.4c-0.19-0.43-0.44-0.81-0.76-1.14
			c-0.32-0.32-0.7-0.58-1.14-0.76c-0.43-0.19-0.9-0.28-1.4-0.28c-0.5,0-0.96,0.09-1.4,0.28c-0.43,0.19-0.81,0.44-1.14,0.76
			c-0.32,0.32-0.58,0.7-0.76,1.14C316.1,42.42,316.01,42.88,316.01,43.38z M317.93,40.97h1.68c0.22,0,0.44,0.03,0.65,0.07
			c0.21,0.05,0.4,0.13,0.57,0.24s0.3,0.25,0.4,0.43c0.1,0.17,0.15,0.39,0.15,0.65c0,0.35-0.1,0.63-0.3,0.85
			c-0.2,0.22-0.47,0.36-0.8,0.44l1.29,2.09h-1.04l-1.12-1.99h-0.61v1.99h-0.86V40.97z M319.48,43.06c0.25,0,0.48-0.05,0.71-0.14
			c0.22-0.09,0.34-0.28,0.34-0.57c0-0.26-0.1-0.43-0.31-0.52c-0.2-0.09-0.42-0.13-0.64-0.13h-0.78v1.36H319.48z"/>
	</g>
</g>
</svg>
