<?xml version="1.0" encoding="utf-8"?>
<!-- Generator: Adobe Illustrator 26.1.0, SVG Export Plug-In . SVG Version: 6.00 Build 0)  -->
<svg version="1.1" id="Layer_1" xmlns="http://www.w3.org/2000/svg" xmlns:xlink="http://www.w3.org/1999/xlink" x="0px" y="0px"
	 viewBox="0 0 387.3 94.5" style="enable-background:new 0 0 387.3 94.5;" xml:space="preserve">
<style type="text/css">
	.st0{fill:#D71920;}
	.st1{fill:#231F20;}
</style>
<g>
	<g>
		<path class="st0" d="M130.9,64.5c-3.2,0-4.2-0.8-4.2-3V33.3c0-1.8,0.9-2.7,2.4-2.7h14.3c6.6,0,10.9,4.1,10.9,10.3
			c0,9-5.5,12.1-14.5,12.1c-5.9,0-6.1,1.3-6.1,5.6v3.3C133.7,62.9,133,64.5,130.9,64.5 M133.7,41.6v1.8c0,3.4,1.5,4.6,5.7,4.6
			c5.8,0,8.7-2.1,8.7-6.3c0-3.7-2.5-6.1-7.5-6.1h-2.3c-3.4,0-4.6,1.4-4.6,5.8"/>
		<path class="st0" d="M175.8,64.5c-2.1,0-3.1-0.9-4.4-0.9c-2.3,0-3.9,1.6-7.3,1.6c-5.6,0-8.6-3.2-8.6-7.6c0-4.5,3.6-7.9,11.7-9
			c3.3-0.4,4.3-1.7,4.3-2.8c0-2-1.6-3.3-3.5-3.3c-3.8,0-3.5,3.3-7.7,3.3c-1.4,0-2.9-0.3-2.9-2c0-1.8,2.1-5.6,10.1-5.6
			c7,0,11.2,1.6,11.2,8.8v15C178.7,64,177.5,64.5,175.8,64.5 M166.8,60.1c2.6,0,5.2-2.4,5.2-5c0-1.3-0.7-2.4-2.5-2.4
			c-2.1,0-6.3,1.4-6.3,4.2C163.2,58.6,164.6,60.1,166.8,60.1"/>
		<path class="st0" d="M186.3,35.2c-2.9,0-3.9-1.3-3.9-3c0-2.5,1.8-3.2,3.9-3.2c2.9,0,4,1.3,4,3C190.4,34.5,188.6,35.2,186.3,35.2
			 M190.7,42.6v19.1c0,2.4-1.3,3.6-4,3.6c-3.4,0-4-1.5-4-4.4V42.2c0-2.2,1.2-3.6,3-3.6h1.8c2.1,0,3.2,1.5,3.2,4.4"/>
		<path class="st0" d="M216.7,46.6v15.2c0,1.9-1.4,2.8-3.1,2.8h-1c-1.7,0-2.9-0.9-2.9-2.8V51c0-4.6-1.6-6.9-4.4-6.9
			c-3.1,0-4.6,2.4-4.6,7.2v10.5c0,1.9-1.4,2.8-3.1,2.8h-1.1c-1.7,0-2.8-1-2.8-3.1V41.9c0-1.9,1.1-2.9,3.5-2.9c2,0,3.6,0.7,4.9,0.7
			c2.4,0,3.1-1.3,6.7-1.3c4.6,0,7.6,2.2,7.6,8"/>
		<path class="st0" d="M217.9,40.4c0-1.8,2.7-2.8,3.2-3.9c0.5-1.2,0.5-1.7,0.5-2.8c0-1.2,0.3-3.8,4.1-3.8c3.7,0,4,2.4,4,3.9
			c0,1.1,0.2,2.1,0.7,2.9c0.8,1.3,3.9,1.3,3.9,3.8c0,2.5-3.3,2.2-4.2,4.3c-0.5,1.2-0.4,1.8-0.4,3.6v6.1c0,1.8,0.2,2.3,0.6,3.1
			c0.8,1.8,4.3,1.8,4.3,4.9c0,2.2-1.4,3.4-4.2,3.4c-5.8,0-8.7-2.6-8.7-7.8v-9.4c0.1-2.1-0.2-3.7-1.1-4.7
			C219.8,42.9,217.9,42.2,217.9,40.4"/>
		<path class="st1" d="M241.9,64.5c-3.2,0-4.2-0.8-4.2-3V33.3c0-1.8,0.9-2.7,2.4-2.7h14.3c6.6,0,10.9,4.1,10.9,10.3
			c0,9-5.5,12.1-14.5,12.1c-5.9,0-6.1,1.3-6.1,5.6v3.3C244.7,62.9,244,64.5,241.9,64.5 M244.7,41.6v1.8c0,3.4,1.5,4.6,5.7,4.6
			c5.8,0,8.7-2.1,8.7-6.3c0-3.7-2.5-6.1-7.5-6.1h-2.3c-3.4,0-4.6,1.4-4.6,5.8"/>
		<path class="st1" d="M287.8,64.5c-2.1,0-3.1-0.9-4.4-0.9c-2.3,0-3.9,1.6-7.3,1.6c-5.6,0-8.6-3.2-8.6-7.6c0-4.5,3.6-7.9,11.7-9
			c3.3-0.4,4.3-1.7,4.3-2.8c0-2-1.6-3.3-3.5-3.3c-3.8,0-3.5,3.3-7.7,3.3c-1.4,0-2.9-0.3-2.9-2c0-1.8,2.1-5.6,10.1-5.6
			c7,0,11.2,1.6,11.2,8.8v15C290.7,64,289.5,64.5,287.8,64.5 M277.9,60.1c2.6,0,5.2-2.4,5.2-5c0-1.3-0.7-2.4-2.5-2.4
			c-2.1,0-6.3,1.4-6.3,4.2C274.3,58.6,275.7,60.1,277.9,60.1"/>
		<path class="st1" d="M306.3,37.8c5,0,10.3,2.9,10.3,5.5c0,1.3-1.6,2.8-3.8,2.8c-2.1,0-3.3-2.3-6-2.3c-2.4,0-5.8,1.8-5.8,7.7
			c0,5.2,2.7,7.9,6.1,7.9c4,0,3.7-2.5,6.6-2.5c1.5,0,3,1,3,2.5c0,2-4.2,5.9-10.4,5.9c-7.7,0-13.4-4.6-13.4-13.7
			C292.9,43.6,298.2,37.8,306.3,37.8"/>
		<path class="st1" d="M342.3,61.2c0.6,1,0.9,1.8,0.9,2.3c0,1.1-1,1.6-3,1.6c-2.2,0-3.9-0.8-4.9-2.4l-2.6-4.3c-1-1.6-2-2.4-3-2.4
			c-1.5,0-3.1,1.3-3.1,5c0,2.7-0.5,4.1-3.3,4.1c-2.7,0-3.5-1.1-3.5-3.4V33.8c0-2.1,0.9-3.2,3.4-3.2c2.3,0,3.4,1,3.4,3.2
			c0,10.7-0.1,12.1,1.8,12.1c0.6,0,1.3-0.2,3.1-2c0,0,0.5-0.6,1.6-1.8c1.1-1.1,1.8-1.7,2.1-1.8c0.8-0.5,2-0.7,3.6-0.7h0.7
			c1.5,0,2.2,0.5,2.2,1.4c0,0.5-0.3,1.1-1,1.9l-3.5,4c-0.9,1.1-1.1,2.2-1.1,2.6c0,0.9,0.2,1.6,0.5,2.1L342.3,61.2z"/>
		<rect x="31.7" y="40.6" class="st0" width="36" height="36"/>
		<rect x="67.7" y="17.6" class="st1" width="22" height="22"/>
		<rect x="89.7" y="40.6" class="st0" width="14" height="14"/>
		<rect x="81.7" y="53.6" class="st1" width="9" height="9"/>
		<rect x="76.7" y="48.6" class="st0" width="5" height="5"/>
	</g>
	<g>
		<path class="st1" d="M347,61.1c0-0.6,0.1-1.1,0.3-1.6c0.2-0.5,0.5-1,0.9-1.3c0.4-0.4,0.8-0.7,1.4-0.9c0.5-0.2,1.1-0.3,1.6-0.3
			c0.6,0,1.1,0.1,1.6,0.3c0.5,0.2,1,0.5,1.4,0.9c0.4,0.4,0.7,0.8,0.9,1.3c0.2,0.5,0.3,1.1,0.3,1.6c0,0.6-0.1,1.1-0.3,1.6
			c-0.2,0.5-0.5,1-0.9,1.3c-0.4,0.4-0.8,0.7-1.4,0.9c-0.5,0.2-1.1,0.3-1.6,0.3c-0.6,0-1.1-0.1-1.6-0.3c-0.5-0.2-1-0.5-1.4-0.9
			c-0.4-0.4-0.7-0.8-0.9-1.3C347.1,62.3,347,61.7,347,61.1z M347.7,61.1c0,0.5,0.1,0.9,0.3,1.4c0.2,0.4,0.4,0.8,0.8,1.1
			c0.3,0.3,0.7,0.6,1.1,0.8c0.4,0.2,0.9,0.3,1.4,0.3s1-0.1,1.4-0.3c0.4-0.2,0.8-0.4,1.1-0.8c0.3-0.3,0.6-0.7,0.8-1.1
			c0.2-0.4,0.3-0.9,0.3-1.4c0-0.5-0.1-1-0.3-1.4c-0.2-0.4-0.4-0.8-0.8-1.1c-0.3-0.3-0.7-0.6-1.1-0.8c-0.4-0.2-0.9-0.3-1.4-0.3
			s-1,0.1-1.4,0.3c-0.4,0.2-0.8,0.4-1.1,0.8c-0.3,0.3-0.6,0.7-0.8,1.1C347.7,60.2,347.7,60.6,347.7,61.1z M349.7,58.6h1.6
			c0.2,0.1,0.4,0.2,0.7,0.2c0.2,0,0.4,0.1,0.6,0.2c0.2,0.1,0.3,0.3,0.4,0.4c0.1,0.2,0.1,0.4,0.1,0.7c0,0.3-0.1,0.6-0.3,0.8
			c-0.2,0.2-0.5,0.4-0.8,0.4l1.3,2.2h-0.8l-1.1-2h-0.6v2h-1V58.6z M351.1,60.6c0.2,0.2,0.5,0.2,0.7,0.1c0.2-0.1,0.3-0.3,0.3-0.6
			c0-0.3-0.1-0.4-0.3-0.5c-0.2-0.1-0.4-0.1-0.6,0h-0.5v1H351.1z"/>
	</g>
</g>
</svg>
