<?xml version="1.0" encoding="utf-8"?>
<!-- Generator: Adobe Illustrator 26.1.0, SVG Export Plug-In . SVG Version: 6.00 Build 0)  -->
<svg version="1.1" id="Layer_1" xmlns="http://www.w3.org/2000/svg" xmlns:xlink="http://www.w3.org/1999/xlink" x="0px" y="0px"
	 viewBox="0 0 512 512" style="enable-background:new 0 0 512 512;" xml:space="preserve">
<style type="text/css">
	.st0{fill:#FFFFFF;}
</style>
<path class="st0" d="M468.7,229.7L402.2,95.6c0-0.1-0.1-0.1-0.1-0.2c-0.2-0.4-0.5-0.9-0.7-1.3c0,0-0.1-0.1-0.1-0.1
	c-0.3-0.4-0.6-0.9-1-1.3c-0.1-0.1-0.1-0.1-0.2-0.2c-0.3-0.3-0.6-0.6-1-0.9c-0.1-0.1-0.2-0.1-0.2-0.2c-0.4-0.3-0.9-0.7-1.3-0.9
	c-0.1,0-0.1-0.1-0.2-0.1c-0.3-0.2-0.6-0.4-0.9-0.5c-0.1-0.1-0.2-0.1-0.3-0.1c-0.5-0.2-1.1-0.4-1.6-0.6c-0.1,0-0.2-0.1-0.3-0.1
	c-0.5-0.1-1.1-0.3-1.6-0.3c-0.1,0-0.1,0-0.2,0c-0.5-0.1-1-0.1-1.4-0.1c-0.1,0-0.1,0-0.2,0H122c-0.1,0-0.2,0-0.2,0
	c-0.5,0-0.9,0-1.4,0.1c-0.1,0-0.2,0-0.3,0c-0.5,0.1-1,0.2-1.6,0.3c-0.1,0-0.2,0.1-0.3,0.1c-0.6,0.2-1.1,0.4-1.6,0.6
	c-0.1,0.1-0.2,0.1-0.3,0.2c-0.3,0.1-0.5,0.3-0.8,0.4c-0.1,0.1-0.2,0.1-0.3,0.1c-0.5,0.3-0.9,0.6-1.3,0.9c-0.1,0.1-0.1,0.1-0.2,0.2
	c-0.3,0.3-0.7,0.6-1,0.9c-0.5,0.5-0.9,1-1.3,1.5c-0.3,0.4-0.6,0.9-0.8,1.4c0,0.1-0.1,0.1-0.1,0.2L43.4,229.7
	c-2.4,4.8-1.6,10.6,2.1,14.5l201.2,214.6c4.9,5.2,13,5.4,18.2,0.6c0.2-0.2,0.4-0.4,0.6-0.6l201.2-214.6
	C470.2,240.3,471,234.5,468.7,229.7L468.7,229.7z M370,114.1l-45.9,92.6l-46.9-92.6H370L370,114.1z M303.3,222.6H210l46.4-92.7
	L303.3,222.6z M235.6,114.1l-46.4,92.6l-46.4-92.6H235.6z M70.3,233.2L122,130l46.4,92.6h-43.1c-7.1,0-12.8,5.7-12.8,12.8
	c0,0,0,0,0,0c0,7.1,5.7,12.8,12.8,12.8c0,0,0,0,0,0h54.5l47.4,152.1L70.3,233.2L70.3,233.2z M256.1,407.2l-49.5-159h100L256.1,407.2
	z M285.4,399.8l48.2-151.6h53.2c7.1,0,12.8-5.7,12.8-12.8c0,0,0,0,0,0c0-7.1-5.7-12.8-12.8-12.8c0,0,0,0,0,0h-41.8l45.8-92.4
	l51,102.9L285.4,399.8L285.4,399.8z"/>
</svg>
