<svg xmlns="http://www.w3.org/2000/svg" viewBox="0 0 512 512" style="enable-background:new 0 0 512 512" xml:space="preserve"><path d="M500.85 285.719C506.076 277.013 512 267.147 512 256c0-11.147-5.924-21.013-11.15-29.719-3.696-6.157-7.187-11.972-8.25-17.347-1.126-5.693-.106-12.586.974-19.885 1.535-10.369 3.123-21.091-1.004-31.043-4.209-10.151-13.013-16.661-21.526-22.955-5.84-4.319-11.358-8.398-14.479-13.059-3.169-4.735-4.854-11.442-6.637-18.544-2.565-10.214-5.217-20.775-12.908-28.467-7.692-7.692-18.254-10.344-28.468-12.909-7.101-1.784-13.809-3.468-18.543-6.638-4.661-3.12-8.74-8.637-13.059-14.478-6.294-8.514-12.804-17.317-22.955-21.526-4.256-1.764-9.037-2.622-14.616-2.622-5.498 0-11.055.822-16.427 1.617-5.079.751-9.876 1.462-14.303 1.462-2.097 0-3.923-.16-5.581-.488-5.374-1.063-11.189-4.554-17.345-8.25C277.014 5.924 267.147 0 256 0c-11.147 0-21.014 5.924-29.72 11.15-6.156 3.696-11.971 7.187-17.345 8.25-1.659.328-3.485.488-5.581.488-4.428 0-9.226-.71-14.303-1.462-5.374-.795-10.93-1.619-16.427-1.619-5.579 0-10.361.858-14.616 2.622-10.151 4.209-16.66 13.013-22.954 21.525-4.318 5.841-8.397 11.358-13.058 14.479-4.735 3.169-11.442 4.853-18.544 6.637-10.214 2.564-20.776 5.217-28.468 12.909-7.692 7.692-10.344 18.253-12.908 28.468-1.784 7.101-3.468 13.809-6.637 18.543-3.12 4.66-8.637 8.74-14.479 13.058-8.514 6.294-17.316 12.804-21.526 22.955-4.127 9.952-2.54 20.675-1.005 31.044 1.08 7.298 2.1 14.191.974 19.885-1.063 5.375-4.554 11.19-8.25 17.346C5.924 234.987 0 244.853 0 256c0 11.147 5.924 21.013 11.15 29.719 3.696 6.157 7.187 11.972 8.25 17.347 1.126 5.693.106 12.586-.974 19.885-1.535 10.369-3.123 21.091 1.004 31.043 4.209 10.151 13.013 16.661 21.526 22.955 5.84 4.319 11.358 8.398 14.479 13.059 3.169 4.735 4.854 11.442 6.637 18.544 2.565 10.214 5.217 20.775 12.908 28.467 7.692 7.692 18.254 10.344 28.468 12.909 7.101 1.784 13.809 3.468 18.543 6.638 4.661 3.12 8.74 8.637 13.059 14.478 6.294 8.514 12.804 17.317 22.955 21.526 4.256 1.766 9.038 2.623 14.617 2.622 5.497 0 11.052-.822 16.425-1.617 5.08-.751 9.877-1.462 14.304-1.462 2.097 0 3.922.16 5.581.488 5.374 1.063 11.189 4.554 17.344 8.25C234.986 506.076 244.853 512 256 512c11.147 0 21.014-5.924 29.72-11.15 6.156-3.696 11.971-7.187 17.345-8.25 1.659-.328 3.485-.488 5.581-.488 4.428 0 9.226.71 14.303 1.462 5.374.796 10.93 1.619 16.427 1.619 5.579 0 10.361-.858 14.616-2.622 10.151-4.209 16.66-13.013 22.954-21.525 4.318-5.841 8.397-11.358 13.058-14.479 4.735-3.169 11.442-4.853 18.544-6.637 10.214-2.564 20.776-5.217 28.468-12.909 7.692-7.692 10.344-18.253 12.908-28.468 1.784-7.101 3.468-13.809 6.637-18.543 3.12-4.66 8.637-8.74 14.479-13.058 8.514-6.294 17.316-12.804 21.526-22.955 4.127-9.952 2.54-20.675 1.005-31.044-1.08-7.298-2.1-14.191-.974-19.885 1.066-5.377 4.557-11.192 8.253-17.349zm-13.604-8.166c-4.235 7.053-8.612 14.346-10.211 22.435-1.658 8.383-.386 16.977.844 25.288 1.274 8.613 2.479 16.748.034 22.643-2.524 6.087-9.217 11.036-16.303 16.274-6.675 4.935-13.575 10.038-18.23 16.99-4.702 7.025-6.807 15.403-8.84 23.507-2.134 8.497-4.149 16.522-8.74 21.113-4.59 4.59-12.616 6.606-21.112 8.739-8.103 2.035-16.482 4.139-23.507 8.842-6.952 4.655-12.055 11.556-16.991 18.23-5.238 7.086-10.187 13.777-16.274 16.303-2.291.95-5.085 1.412-8.538 1.412-4.33 0-9.077-.703-14.103-1.447-5.425-.803-11.033-1.633-16.628-1.633-3.143 0-5.975.258-8.661.789-8.089 1.601-15.382 5.978-22.434 10.211-7.612 4.568-14.803 8.885-21.553 8.885s-13.94-4.317-21.553-8.887c-7.052-4.234-14.344-8.611-22.434-10.211-2.685-.531-5.518-.789-8.661-.789-5.596 0-11.205.83-16.628 1.632-5.026.745-9.773 1.447-14.103 1.447-3.454 0-6.246-.462-8.538-1.412-6.088-2.524-11.037-9.216-16.276-16.303-4.934-6.674-10.037-13.575-16.989-18.23-7.025-4.702-15.404-6.807-23.508-8.841-8.497-2.134-16.521-4.149-21.112-8.739-4.59-4.59-6.605-12.615-8.739-21.112-2.035-8.103-4.139-16.482-8.842-23.506-4.654-6.952-11.556-12.055-18.23-16.99-7.086-5.24-13.779-10.188-16.303-16.274-2.445-5.895-1.24-14.03.035-22.642 1.23-8.31 2.503-16.903.844-25.288-1.601-8.089-5.978-15.382-10.211-22.435-4.57-7.612-8.886-14.802-8.886-21.552 0-6.749 4.316-13.939 8.886-21.553 4.235-7.053 8.612-14.346 10.211-22.435 1.658-8.383.386-16.977-.844-25.288-1.274-8.613-2.479-16.748-.034-22.643 2.524-6.087 9.217-11.035 16.303-16.274 6.675-4.935 13.575-10.038 18.23-16.99 4.702-7.025 6.807-15.403 8.84-23.507 2.134-8.497 4.149-16.522 8.74-21.113 4.59-4.59 12.616-6.606 21.112-8.739 8.103-2.035 16.482-4.139 23.507-8.842 6.952-4.655 12.055-11.556 16.991-18.23 5.238-7.086 10.187-13.777 16.274-16.303 2.291-.95 5.085-1.412 8.538-1.412 4.33 0 9.077.703 14.103 1.447 5.425.803 11.033 1.633 16.628 1.633 3.143 0 5.975-.258 8.661-.789 8.089-1.601 15.382-5.978 22.434-10.211 7.612-4.568 14.803-8.885 21.553-8.885s13.94 4.317 21.553 8.887c7.052 4.233 14.344 8.611 22.434 10.211 2.685.531 5.518.789 8.661.789 5.596 0 11.205-.83 16.628-1.632 5.026-.745 9.772-1.447 14.103-1.447 3.454 0 6.246.462 8.538 1.412 6.088 2.524 11.037 9.216 16.276 16.303 4.934 6.674 10.037 13.575 16.989 18.23 7.025 4.702 15.404 6.807 23.508 8.841 8.497 2.134 16.521 4.149 21.112 8.739s6.605 12.615 8.739 21.112c2.035 8.103 4.139 16.482 8.842 23.507 4.653 6.952 11.556 12.055 18.23 16.99 7.086 5.24 13.779 10.188 16.303 16.274 2.445 5.895 1.24 14.03-.035 22.642-1.23 8.31-2.503 16.903-.844 25.288 1.601 8.089 5.978 15.382 10.211 22.435 4.57 7.612 8.886 14.802 8.886 21.552 0 6.748-4.316 13.938-8.886 21.552z"/><path d="M256 78.81c-97.702 0-177.19 79.487-177.19 177.19S158.298 433.19 256 433.19 433.19 353.703 433.19 256 353.702 78.81 256 78.81zm0 338.512c-88.954 0-161.322-72.369-161.322-161.322S167.046 94.678 256 94.678 417.322 167.046 417.322 256 344.954 417.322 256 417.322z"/><path d="m387.405 247.259-41.073-82.865c-.02-.039-.045-.074-.067-.113a7.995 7.995 0 0 0-.46-.784c-.019-.029-.036-.059-.056-.088a7.884 7.884 0 0 0-.627-.791c-.042-.047-.087-.09-.129-.136a7.813 7.813 0 0 0-.61-.582c-.051-.043-.101-.089-.152-.131a8.056 8.056 0 0 0-.808-.582c-.031-.019-.063-.034-.095-.053a7.938 7.938 0 0 0-.58-.325c-.062-.031-.126-.053-.188-.081a8.24 8.24 0 0 0-1-.383c-.068-.021-.133-.045-.201-.065a7.689 7.689 0 0 0-.981-.209c-.044-.006-.09-.008-.134-.015a8.158 8.158 0 0 0-.895-.063c-.041-.001-.083-.008-.124-.008H173.206c-.048 0-.094.01-.142.01a7.648 7.648 0 0 0-.839.059c-.063.007-.127.013-.19.021a7.771 7.771 0 0 0-.964.205c-.067.019-.13.043-.197.063a8.398 8.398 0 0 0-1.007.386c-.072.033-.144.059-.215.094-.17.086-.33.182-.491.278-.052.031-.106.057-.158.089-.284.177-.55.369-.803.575-.047.038-.091.08-.138.12a7.52 7.52 0 0 0-.607.576 7.391 7.391 0 0 0-.775.942 8.237 8.237 0 0 0-.507.854c-.02.038-.046.071-.066.11l-41.504 82.865a7.936 7.936 0 0 0 1.305 8.979l124.298 132.584a7.945 7.945 0 0 0 11.58-.001L386.084 256.21a7.933 7.933 0 0 0 1.321-8.951zm-60.968-71.408-28.36 57.215-28.956-57.215h57.316zm-41.193 66.998h-57.686l28.693-57.288 28.993 57.288zm-41.877-66.998-28.656 57.215-28.657-57.215h57.313zM141.273 249.39l31.933-63.757 28.656 57.215h-26.66a7.933 7.933 0 0 0-7.934 7.934 7.933 7.933 0 0 0 7.934 7.934h33.668l29.276 94.006-96.873-103.332zm114.805 107.544-30.587-98.217h61.811l-31.224 98.217zm18.099-4.557 29.776-93.661h32.843a7.933 7.933 0 0 0 7.934-7.934 7.933 7.933 0 0 0-7.934-7.934h-25.858l28.286-57.067 31.52 63.591-96.567 103.005z"/><path d="M256 47.074C140.798 47.074 47.074 140.798 47.074 256c0 49.619 17.78 97.755 50.065 135.541a7.934 7.934 0 1 0 12.064-10.308C79.372 346.318 62.942 301.843 62.942 256c0-106.453 86.605-193.058 193.058-193.058S449.058 149.547 449.058 256 362.453 449.058 256 449.058c-45.843 0-90.318-16.43-125.234-46.262a7.935 7.935 0 0 0-10.308 12.064c37.786 32.286 85.923 50.066 135.541 50.066 115.202 0 208.926-93.723 208.926-208.926S371.202 47.074 256 47.074z"/></svg>