<svg xmlns="http://www.w3.org/2000/svg" viewBox="0 0 379.57 379.57" style="enable-background:new 0 0 379.57 379.57" xml:space="preserve"><path d="M320.962 123.055c-30.868-24.218-78.682-53.087-131.177-53.087-52.263 0-100.19 29.226-131.192 53.744C27.928 147.963 0 179.456 0 189.785c0 11.773 26.846 42.62 58.623 67.36 25.163 19.591 75.664 52.457 131.162 52.457 55.526 0 106.01-32.82 131.161-52.384 31.778-24.719 58.625-55.599 58.625-67.433-.001-11.053-27.388-42.235-58.609-66.73zM189.785 268.254c-43.337 0-78.468-35.132-78.468-78.468 0-43.337 35.131-78.468 78.468-78.468s78.468 35.131 78.468 78.468c0 43.336-35.131 78.468-78.468 78.468z"/></svg>